<svg width="16" height="18" viewBox="0 0 16 18" fill="none" xmlns="http://www.w3.org/2000/svg">
<path d="M15 4.99997H13.19C12.74 4.21997 12.12 3.54997 11.37 3.03997L12.3 2.10997C12.69 1.71997 12.69 1.08997 12.3 0.699971C11.91 0.309971 11.28 0.309971 10.89 0.699971L9.42 2.16997C8.96 2.05997 8.49 1.99997 8 1.99997C7.51 1.99997 7.04 2.05997 6.59 2.16997L5.11 0.699971C4.72 0.309971 4.09 0.309971 3.7 0.699971C3.31 1.08997 3.31 1.71997 3.7 2.10997L4.62 3.03997C3.88 3.54997 3.26 4.21997 2.81 4.99997H1C0.45 4.99997 0 5.44997 0 5.99997C0 6.54997 0.45 6.99997 1 6.99997H2.09C2.04 7.32997 2 7.65997 2 7.99997V8.99997H1C0.45 8.99997 0 9.44997 0 9.99997C0 10.55 0.45 11 1 11H2V12C2 12.34 2.04 12.67 2.09 13H1C0.45 13 0 13.45 0 14C0 14.55 0.45 15 1 15H2.81C3.85 16.79 5.78 18 8 18C10.22 18 12.15 16.79 13.19 15H15C15.55 15 16 14.55 16 14C16 13.45 15.55 13 15 13H13.91C13.96 12.67 14 12.34 14 12V11H15C15.55 11 16 10.55 16 9.99997C16 9.44997 15.55 8.99997 15 8.99997H14V7.99997C14 7.65997 13.96 7.32997 13.91 6.99997H15C15.55 6.99997 16 6.54997 16 5.99997C16 5.44997 15.55 4.99997 15 4.99997ZM9 13H7C6.45 13 6 12.55 6 12C6 11.45 6.45 11 7 11H9C9.55 11 10 11.45 10 12C10 12.55 9.55 13 9 13ZM9 8.99997H7C6.45 8.99997 6 8.54997 6 7.99997C6 7.44997 6.45 6.99997 7 6.99997H9C9.55 6.99997 10 7.44997 10 7.99997C10 8.54997 9.55 8.99997 9 8.99997Z" fill="black"/>
</svg>
