<svg width="18" height="20" viewBox="0 0 18 20" fill="none" xmlns="http://www.w3.org/2000/svg">
<path d="M16 2H11.82C11.4 0.84 10.3 0 9 0C7.7 0 6.6 0.84 6.18 2H2C0.9 2 0 2.9 0 4V18C0 19.1 0.9 20 2 20H16C17.1 20 18 19.1 18 18V4C18 2.9 17.1 2 16 2ZM9 2C9.55 2 10 2.45 10 3C10 3.55 9.55 4 9 4C8.45 4 8 3.55 8 3C8 2.45 8.45 2 9 2ZM11 15C11 15.5523 10.5523 16 10 16H5C4.44772 16 4 15.5523 4 15C4 14.4477 4.44772 14 5 14H10C10.5523 14 11 14.4477 11 15ZM14 11C14 11.5523 13.5523 12 13 12H5C4.44772 12 4 11.5523 4 11C4 10.4477 4.44772 10 5 10H13C13.5523 10 14 10.4477 14 11ZM14 7C14 7.55228 13.5523 8 13 8H5C4.44772 8 4 7.55228 4 7C4 6.44772 4.44772 6 5 6H13C13.5523 6 14 6.44772 14 7Z" fill="black"/>
</svg>
