<svg width="18" height="18" viewBox="0 0 18 18" fill="none" xmlns="http://www.w3.org/2000/svg">
<path d="M16 0H11.82C11.82 0 10.1013 9.11951e-06 9 9.11951e-06C7.89872 9.11951e-06 6.18 0 6.18 0H2C0.9 0 0 0.9 0 2V16C0 17.1 0.9 18 2 18H16C17.1 18 18 17.1 18 16V2C18 0.9 17.1 0 16 0ZM11 13C11 13.5523 10.5523 14 10 14H5C4.44772 14 4 13.5523 4 13C4 12.4477 4.44772 12 5 12H10C10.5523 12 11 12.4477 11 13ZM14 9C14 9.55228 13.5523 10 13 10H5C4.44772 10 4 9.55228 4 9C4 8.44771 4.44772 8 5 8H13C13.5523 8 14 8.44771 14 9ZM14 5C14 5.55229 13.5523 6 13 6H5C4.44772 6 4 5.55229 4 5C4 4.44772 4.44772 4 5 4H13C13.5523 4 14 4.44772 14 5Z" fill="black"/>
</svg>
