<svg width="24" height="24" viewBox="0 0 24 24" fill="none" xmlns="http://www.w3.org/2000/svg">
<path fill-rule="evenodd" clip-rule="evenodd" d="M8.75488 18.3959H15.2447V6.60315H8.75488V18.3959Z" fill="#FF5F00"/>
<path fill-rule="evenodd" clip-rule="evenodd" d="M9.16707 12.4996C9.16707 10.1071 10.2749 7.97633 11.9999 6.60322C10.7382 5.59885 9.14647 4.99969 7.41627 4.99969C3.32029 4.99969 0 8.35757 0 12.4996C0 16.6416 3.32029 19.9995 7.41627 19.9995C9.14647 19.9995 10.7382 19.4004 11.9999 18.396C10.2749 17.0227 9.16707 14.8921 9.16707 12.4996Z" fill="#EB001B"/>
<path fill-rule="evenodd" clip-rule="evenodd" d="M23.7683 17.1469V16.8558H23.6931L23.6068 17.056L23.5203 16.8558H23.4451V17.1469H23.498V16.9273L23.5792 17.1167H23.6342L23.7154 16.9269V17.1469H23.7683ZM23.2922 17.1469V16.9054H23.3886V16.8562H23.1435V16.9054H23.2397V17.1469H23.2922ZM23.9999 12.4994C23.9999 16.6415 20.6794 19.9993 16.5836 19.9993C14.8534 19.9993 13.2615 19.4002 12 18.3958C13.725 17.0227 14.8328 14.8919 14.8328 12.4994C14.8328 10.1072 13.725 7.97635 12 6.60303C13.2615 5.59867 14.8534 4.99951 16.5836 4.99951C20.6794 4.99951 23.9999 8.35739 23.9999 12.4994Z" fill="#F79E1B"/>
</svg>
