<svg width="20" height="18" viewBox="0 0 20 18" fill="none" xmlns="http://www.w3.org/2000/svg">
<path d="M17.43 14.02C17.79 13.43 18 12.74 18 12C18 9.79 16.21 8 14 8C11.79 8 10 9.79 10 12C10 14.21 11.79 16 14 16C14.74 16 15.43 15.78 16.02 15.43L17.885 17.295C18.2744 17.6844 18.9056 17.6844 19.295 17.295C19.6844 16.9056 19.6844 16.2744 19.295 15.885L17.43 14.02ZM14 14C12.9 14 12 13.1 12 12C12 10.9 12.9 10 14 10C15.1 10 16 10.9 16 12C16 13.1 15.1 14 14 14Z" fill="black"/>
<path fill-rule="evenodd" clip-rule="evenodd" d="M0.992113 2.4378C0.388972 2.70476 0 3.30228 0 3.96186V6.45093C0 10.4179 2.01581 14.1131 5.35137 16.2605L5.59782 16.4192C6.14726 16.7729 6.85274 16.7729 7.40218 16.4192L7.64863 16.2605C8.11531 15.9601 8.55615 15.6293 8.96926 15.2718C8.3562 14.3309 8 13.2072 8 12C8 9.02615 10.1617 6.55875 13 6.08289V3.96186C13 3.30228 12.611 2.70476 12.0079 2.4378L7.17455 0.298553C6.74495 0.108409 6.25505 0.108409 5.82545 0.298553L0.992113 2.4378ZM12.8743 8.16044C11.2128 8.64639 10 10.1809 10 12C10 12.6378 10.1491 13.2406 10.4143 13.7755C11.7124 12.1659 12.5681 10.2288 12.8743 8.16044Z" fill="black"/>
</svg>
