<svg width="49" height="48" viewBox="0 0 49 48" fill="none" xmlns="http://www.w3.org/2000/svg">
<rect x="0.5" width="48" height="48" rx="16" fill="#FFA787"/>
<path d="M32 28.5C30.75 28.5 29.55 28.3 28.43 27.93C28.08 27.82 27.69 27.9 27.41 28.17L25.21 30.37C22.38 28.93 20.06 26.62 18.62 23.78L20.82 21.57C21.1 21.31 21.18 20.92 21.07 20.57C20.7 19.45 20.5 18.25 20.5 17C20.5 16.45 20.05 16 19.5 16H16C15.45 16 15 16.45 15 17C15 26.39 22.61 34 32 34C32.55 34 33 33.55 33 33V29.5C33 28.95 32.55 28.5 32 28.5ZM31 25H33C33 20.03 28.97 16 24 16V18C27.87 18 31 21.13 31 25ZM27 25H29C29 22.24 26.76 20 24 20V22C25.66 22 27 23.34 27 25Z" fill="white"/>
</svg>
